<svg width="205" height="58" viewBox="0 0 205 58" fill="none" xmlns="http://www.w3.org/2000/svg">
<path d="M50.4063 58H7.50859C3.36078 58 0 54.6343 0 50.4803V7.51961C0 3.36571 3.36078 0 7.50859 0H50.401C54.5488 0 57.9096 3.36571 57.9096 7.51961V50.4751C57.9148 54.6343 54.5543 58 50.4063 58Z" fill="#0091E5"/>
<path d="M13.2523 25.3177L10.2326 43.4591C10.1063 44.265 9.40662 44.8549 8.60171 44.8549C8.51229 44.8549 8.43863 44.8549 8.34395 44.8392C7.44433 44.6916 6.82356 43.8489 6.97086 42.9482L9.99055 24.8013C10.1379 23.9007 10.9796 23.2791 11.8792 23.4266C12.7735 23.5688 13.3943 24.4169 13.2523 25.3177Z" fill="#F6F7FA"/>
<path d="M43.4183 16.6523H41.7665C39.6939 16.6523 37.6945 17.4056 36.0797 18.654C35.9535 18.0272 35.7482 17.3687 35.2907 16.6734C35.0539 16.252 34.3384 15.4777 34.3384 15.4619C33.8965 14.9456 32.8548 14.2872 32.8548 14.2872C31.7921 13.6288 30.5821 13.26 29.1144 13.1494C29.1144 13.1494 29.1144 13.1494 29.1092 13.1494H27.4625C22.9541 13.1494 18.8612 16.6734 18.1456 21.1719L16.1255 32.6921C15.9782 33.5928 16.6042 34.4564 17.4986 34.5829C18.3982 34.7305 19.2609 34.1035 19.3873 33.2083L21.4073 21.6881C21.8492 18.8594 24.6165 16.4574 27.4415 16.4574H29.0932C30.3612 16.4574 31.4609 16.9368 32.192 17.7954C33.0705 18.8962 32.6498 23.3948 32.45 24.7012L29.5721 42.932C29.5562 43.0428 29.5562 43.1692 29.5562 43.2797V43.2901C29.5562 44.1541 30.2613 44.8599 31.1241 44.8599H34.7542C35.5114 44.8599 36.2216 44.3597 36.3638 43.6115C36.5531 42.6426 35.7905 41.7731 34.8538 41.7731H33.1443C33.1284 41.7731 33.1127 41.7575 33.118 41.7415L35.7378 25.212C36.1796 22.3834 38.9468 19.9815 41.7717 19.9815H43.4238C44.6915 19.9815 45.7912 20.4608 46.5226 21.3194C47.2745 22.1991 47.5693 23.3948 47.364 24.6958L44.6706 41.7468C44.6706 41.7627 44.6547 41.7679 44.6443 41.7679H42.5662C41.8087 41.7679 41.0985 42.2682 40.9563 43.0164C40.7672 43.9856 41.5299 44.8547 42.4663 44.8547H46.2278C46.9957 44.8547 47.622 44.2857 47.7482 43.5538C47.7482 43.5169 47.7639 43.4798 47.7639 43.4641L50.6417 25.2332C51.01 22.9575 50.4416 20.8084 49.0474 19.1754C47.6533 17.532 45.6545 16.6523 43.4183 16.6523Z" fill="#F6F7FA"/>
<path d="M13.2737 18.8547C14.8746 18.8547 16.1724 17.5553 16.1724 15.9523C16.1724 14.3494 14.8746 13.0499 13.2737 13.0499C11.6728 13.0499 10.375 14.3494 10.375 15.9523C10.375 17.5553 11.6728 18.8547 13.2737 18.8547Z" fill="#F6F7FA"/>
<path d="M16.071 44.95C17.672 44.95 18.9697 43.6505 18.9697 42.0473C18.9697 40.4445 17.672 39.145 16.071 39.145C14.4701 39.145 13.1724 40.4445 13.1724 42.0473C13.1724 43.6505 14.4701 44.95 16.071 44.95Z" fill="#F6F7FA"/>
<path d="M73.3523 43.0972C73.0842 43.0972 72.8563 43.0032 72.6687 42.8153C72.4808 42.6274 72.387 42.3992 72.387 42.1306V15.8694C72.387 15.5741 72.4808 15.3458 72.6687 15.1847C72.8563 14.9968 73.0842 14.9028 73.3523 14.9028H77.1335C77.4286 14.9028 77.6567 14.9968 77.8174 15.1847C78.0051 15.3458 78.0992 15.5741 78.0992 15.8694V42.1306C78.0992 42.3992 78.0051 42.6274 77.8174 42.8153C77.6567 43.0032 77.4286 43.0972 77.1335 43.0972H73.3523ZM84.8905 43.0972C84.6224 43.0972 84.3942 43.0032 84.2066 42.8153C84.019 42.6274 83.9249 42.3992 83.9249 42.1306V23.1194C83.9249 22.851 84.019 22.6226 84.2066 22.4347C84.3942 22.2468 84.6224 22.1528 84.8905 22.1528H88.189C88.4572 22.1528 88.685 22.2468 88.8727 22.4347C89.0606 22.6226 89.1544 22.851 89.1544 23.1194V24.7708C90.7368 22.7569 92.9758 21.75 95.8722 21.75C98.3394 21.75 100.297 22.569 101.745 24.2069C103.193 25.8181 103.917 28.0199 103.917 30.8125V42.1306C103.917 42.3992 103.823 42.6274 103.636 42.8153C103.475 43.0032 103.247 43.0972 102.952 43.0972H99.4119C99.1438 43.0972 98.9159 43.0032 98.7283 42.8153C98.5407 42.6274 98.4466 42.3992 98.4466 42.1306V31.0541C98.4466 29.4698 98.0577 28.2482 97.28 27.3889C96.5292 26.5028 95.4298 26.0597 93.9814 26.0597C92.5601 26.0597 91.4337 26.5028 90.6024 27.3889C89.7981 28.275 89.3959 29.4968 89.3959 31.0541V42.1306C89.3959 42.3992 89.3018 42.6274 89.1141 42.8153C88.9532 43.0032 88.7253 43.0972 88.4302 43.0972H84.8905ZM118.245 43.0972C115.804 43.0972 113.967 42.4661 112.734 41.2041C111.527 39.9153 110.923 38.0358 110.923 35.5653V26.4222H107.746C107.477 26.4222 107.249 26.3282 107.062 26.1403C106.874 25.9254 106.78 25.6838 106.78 25.4153V23.1194C106.78 22.851 106.874 22.6226 107.062 22.4347C107.249 22.2468 107.477 22.1528 107.746 22.1528H110.923V15.4667C110.923 15.1713 111.017 14.9431 111.205 14.7819C111.393 14.594 111.621 14.5 111.889 14.5H115.147C115.442 14.5 115.67 14.594 115.831 14.7819C116.019 14.9431 116.112 15.1713 116.112 15.4667V22.1528H121.141C121.436 22.1528 121.664 22.2468 121.825 22.4347C122.012 22.5958 122.106 22.824 122.106 23.1194V25.4153C122.106 25.7107 122.012 25.9524 121.825 26.1403C121.637 26.3282 121.409 26.4222 121.141 26.4222H116.112V35.1625C116.112 36.317 116.314 37.1899 116.716 37.7806C117.118 38.3713 117.789 38.6666 118.727 38.6666H121.503C121.771 38.6666 121.999 38.7608 122.187 38.9487C122.375 39.1367 122.468 39.3649 122.468 39.6334V42.1306C122.468 42.3992 122.375 42.6274 122.187 42.8153C122.026 43.0032 121.798 43.0972 121.503 43.0972H118.245ZM127.002 43.0972C126.734 43.0972 126.506 43.0032 126.318 42.8153C126.131 42.6274 126.037 42.3992 126.037 42.1306V23.1194C126.037 22.851 126.131 22.6226 126.318 22.4347C126.506 22.2468 126.734 22.1528 127.002 22.1528H130.14C130.408 22.1528 130.636 22.2468 130.824 22.4347C131.011 22.6226 131.105 22.851 131.105 23.1194V24.4889C132.5 22.6629 134.444 21.75 136.938 21.75C139.915 21.75 141.993 22.9449 143.174 25.3347C143.817 24.2607 144.729 23.4014 145.909 22.7569C147.088 22.0857 148.363 21.75 149.731 21.75C151.929 21.75 153.726 22.5018 155.121 24.0056C156.515 25.5093 157.213 27.6976 157.213 30.5709V42.1306C157.213 42.3992 157.119 42.6274 156.931 42.8153C156.77 43.0032 156.541 43.0972 156.247 43.0972H152.949C152.68 43.0972 152.452 43.0032 152.265 42.8153C152.076 42.6274 151.983 42.3992 151.983 42.1306V30.8931C151.983 29.2013 151.621 27.9796 150.897 27.2278C150.199 26.449 149.26 26.0597 148.081 26.0597C147.036 26.0597 146.137 26.449 145.386 27.2278C144.662 28.0065 144.3 29.2282 144.3 30.8931V42.1306C144.3 42.3992 144.206 42.6274 144.019 42.8153C143.83 43.0032 143.602 43.0972 143.335 43.0972H140.036C139.767 43.0972 139.539 43.0032 139.352 42.8153C139.164 42.6274 139.071 42.3992 139.071 42.1306V30.8931C139.071 29.2013 138.695 27.9796 137.944 27.2278C137.22 26.449 136.295 26.0597 135.168 26.0597C134.095 26.0597 133.184 26.449 132.433 27.2278C131.709 28.0065 131.347 29.2282 131.347 30.8931V42.1306C131.347 42.3992 131.253 42.6274 131.065 42.8153C130.877 43.0032 130.649 43.0972 130.381 43.0972H127.002ZM171.346 43.5C168.369 43.5 165.996 42.6407 164.226 40.9222C162.482 39.1767 161.557 36.7334 161.45 33.5916L161.41 32.5847L161.45 31.5778C161.584 28.5167 162.523 26.1135 164.266 24.3681C166.036 22.6226 168.396 21.75 171.346 21.75C174.51 21.75 176.95 22.7167 178.667 24.65C180.409 26.5833 181.282 29.1612 181.282 32.3834V33.2291C181.282 33.4976 181.187 33.7258 181 33.9138C180.812 34.1017 180.57 34.1959 180.276 34.1959H166.921V34.5181C166.974 35.9948 167.376 37.2435 168.128 38.2638C168.905 39.2573 169.964 39.7541 171.306 39.7541C172.887 39.7541 174.162 39.1367 175.127 37.9013C175.368 37.606 175.556 37.4181 175.69 37.3375C175.851 37.2569 176.079 37.2166 176.374 37.2166H179.834C180.075 37.2166 180.276 37.2972 180.437 37.4584C180.624 37.5927 180.719 37.767 180.719 37.9819C180.719 38.6263 180.329 39.3916 179.552 40.2778C178.8 41.1371 177.714 41.8888 176.294 42.5334C174.872 43.1778 173.223 43.5 171.346 43.5ZM175.811 30.8125V30.6916C175.811 29.1073 175.409 27.8319 174.604 26.8653C173.826 25.8986 172.74 25.4153 171.346 25.4153C169.951 25.4153 168.865 25.8986 168.088 26.8653C167.309 27.8319 166.921 29.1073 166.921 30.6916V30.8125H175.811ZM193.314 43.5C190.607 43.5 188.528 42.6274 187.08 40.8819C185.631 39.1367 184.854 36.8138 184.746 33.9138L184.706 32.5847L184.746 31.2959C184.827 28.4764 185.591 26.1806 187.039 24.4083C188.515 22.6361 190.607 21.75 193.314 21.75C195.917 21.75 197.981 22.6361 199.509 24.4083V15.4667C199.509 15.1713 199.604 14.9431 199.791 14.7819C199.979 14.594 200.207 14.5 200.475 14.5H203.894C204.189 14.5 204.417 14.594 204.578 14.7819C204.766 14.9431 204.859 15.1713 204.859 15.4667V42.1306C204.859 42.3992 204.766 42.6274 204.578 42.8153C204.417 43.0032 204.189 43.0972 203.894 43.0972H200.716C200.448 43.0972 200.221 43.0032 200.032 42.8153C199.845 42.6274 199.751 42.3992 199.751 42.1306V40.6403C198.222 42.5468 196.077 43.5 193.314 43.5ZM194.803 39.1903C196.359 39.1903 197.512 38.6935 198.262 37.7C199.014 36.7065 199.429 35.4847 199.509 34.0347C199.537 33.7125 199.549 33.1888 199.549 32.4638C199.549 31.7657 199.537 31.2556 199.509 30.9334C199.457 29.5907 199.027 28.4496 198.222 27.5097C197.445 26.5431 196.305 26.0597 194.803 26.0597C191.907 26.0597 190.365 27.8454 190.177 31.4166L190.137 32.625L190.177 33.8334C190.365 37.4045 191.907 39.1903 194.803 39.1903Z" fill="#F6F7FA"/>
</svg>
